<svg width="2567" height="3000" viewBox="0 0 2567 3000" fill="none" xmlns="http://www.w3.org/2000/svg">
<path d="M1364.37 207.047C1327.26 217.166 1320.13 233.209 1296.34 331.198C1279.38 401.072 1234.25 460.029 1188.57 502.995C1268.11 485.412 1319.42 461.427 1361.94 427.578C1398.96 398.107 1431.35 359.658 1469.77 305.879C1448.01 236.134 1394.77 198.755 1364.37 207.047Z" fill="#BBEF4D"/>
<path d="M233.68 1005.71C177.74 1081.43 144.411 1236.73 134.739 1304.91L122.093 1370.69C145.663 1329.1 171.699 1287.71 200.223 1246.66C284.371 1114.67 372.288 1004.62 459.516 913.409C461.153 864.807 447.01 841.397 436.317 834.939C382.281 802.593 278.71 935.307 233.68 1005.71Z" fill="#BBEF4D"/>
<path d="M1440.56 1046.32C1412.99 1100.02 1365.36 1130.57 1334.18 1114.56C1302.99 1098.55 1300.05 1042.04 1327.62 988.344C1355.19 934.648 1402.82 904.098 1434 920.108C1465.19 936.119 1468.13 992.628 1440.56 1046.32Z" fill="#BBEF4D"/>
<path d="M1670.78 1279.41C1621.1 1319.68 1562.93 1330.25 1540.85 1303.02C1518.78 1275.78 1541.15 1221.06 1590.83 1180.79C1640.51 1140.51 1698.68 1129.94 1720.76 1157.18C1742.84 1184.41 1720.46 1239.13 1670.78 1279.41Z" fill="#BBEF4D"/>
<path d="M1720.26 1590.41C1665.11 1607.98 1611.65 1594.8 1600.87 1560.96C1590.09 1527.13 1626.07 1485.45 1681.22 1467.88C1736.38 1450.31 1789.83 1463.49 1800.61 1497.32C1811.39 1531.16 1775.42 1572.83 1720.26 1590.41Z" fill="#BBEF4D"/>
<path d="M1623.31 1921.94C1568.56 1916.01 1527.26 1882.75 1531.06 1847.64C1534.86 1812.54 1582.32 1788.88 1637.07 1794.81C1691.81 1800.73 1733.11 1834 1729.31 1869.1C1725.51 1904.21 1678.05 1927.86 1623.31 1921.94Z" fill="#BBEF4D"/>
<path d="M1419.31 2204.13C1385.02 2161.04 1379.63 2108.28 1407.26 2086.3C1434.89 2064.31 1485.08 2081.42 1519.37 2124.51C1553.66 2167.59 1559.05 2220.35 1531.42 2242.34C1503.79 2264.32 1453.6 2247.22 1419.31 2204.13Z" fill="#BBEF4D"/>
<path d="M1092.83 2323.61C1086.31 2265.78 1109.46 2215.69 1144.55 2211.73C1179.64 2207.77 1213.37 2251.44 1219.9 2309.27C1226.43 2367.1 1203.27 2417.19 1168.18 2421.15C1133.09 2425.11 1099.36 2381.44 1092.83 2323.61Z" fill="#BBEF4D"/>
<path d="M684.618 2359.51C713.039 2312.88 758.673 2288.86 786.545 2305.85C814.417 2322.84 813.972 2374.41 785.551 2421.03C757.13 2467.66 711.496 2491.69 683.624 2474.7C655.753 2457.71 656.198 2406.14 684.618 2359.51Z" fill="#BBEF4D"/>
<path d="M509.631 2110.91C554.142 2073.17 605.405 2060.49 624.129 2082.57C642.854 2104.66 621.95 2153.15 577.439 2190.89C532.928 2228.63 481.666 2241.31 462.941 2219.23C444.217 2197.14 465.121 2148.65 509.631 2110.91Z" fill="#BBEF4D"/>
<path d="M466.916 1813.03C518.5 1797.52 567.555 1809.01 576.483 1838.7C585.412 1868.39 550.833 1905.03 499.249 1920.54C447.665 1936.06 398.61 1924.56 389.681 1894.88C380.753 1865.19 415.332 1828.54 466.916 1813.03Z" fill="#BBEF4D"/>
<path d="M581.775 1503.86C634.468 1515.04 671.304 1551.81 664.052 1585.99C656.799 1620.17 608.203 1638.81 555.511 1627.62C502.818 1616.44 465.982 1579.67 473.235 1545.49C480.487 1511.32 529.083 1492.68 581.775 1503.86Z" fill="#BBEF4D"/>
<path d="M817.296 1237.22C853.245 1277.33 861.296 1328.75 835.277 1352.07C809.258 1375.39 759.024 1361.77 723.075 1321.65C687.126 1281.54 679.075 1230.12 705.094 1206.8C731.113 1183.48 781.347 1197.1 817.296 1237.22Z" fill="#BBEF4D"/>
<path d="M1117.94 1095.1C1128.31 1150.78 1108.92 1201.09 1074.62 1207.48C1040.32 1213.87 1004.11 1173.91 993.744 1118.24C983.374 1062.56 1002.77 1012.24 1037.07 1005.86C1071.36 999.468 1107.57 1039.43 1117.94 1095.1Z" fill="#BBEF4D"/>
<path d="M1275.11 1444.96C1246.58 1493.88 1200.01 1519.87 1171.1 1503.01C1142.2 1486.15 1141.9 1432.82 1170.44 1383.9C1198.98 1334.98 1245.54 1308.99 1274.45 1325.85C1303.35 1342.71 1303.65 1396.04 1275.11 1444.96Z" fill="#BBEF4D"/>
<path d="M1391.75 1716.02C1344.56 1738.34 1294.7 1731.92 1280.39 1701.67C1266.08 1671.42 1292.74 1628.8 1339.94 1606.48C1387.13 1584.15 1436.99 1590.57 1451.3 1620.82C1465.61 1651.07 1438.95 1693.69 1391.75 1716.02Z" fill="#BBEF4D"/>
<path d="M1167.5 1968.37C1140.4 1925.18 1141.42 1875.75 1169.77 1857.97C1198.11 1840.19 1243.06 1860.79 1270.15 1903.98C1297.25 1947.18 1296.23 1996.61 1267.88 2014.39C1239.54 2032.17 1194.59 2011.57 1167.5 1968.37Z" fill="#BBEF4D"/>
<path d="M840.153 2051.24C870.825 2004.01 919.057 1980.89 947.883 1999.61C976.708 2018.32 975.211 2071.79 944.538 2119.03C913.866 2166.26 865.634 2189.38 836.808 2170.66C807.983 2151.95 809.48 2098.48 840.153 2051.24Z" fill="#BBEF4D"/>
<path d="M806.717 1735.07C855.759 1727.89 899.697 1750.64 904.855 1785.87C910.013 1821.1 874.437 1855.48 825.395 1862.66C776.353 1869.84 732.415 1847.1 727.257 1811.87C722.099 1776.63 757.675 1742.25 806.717 1735.07Z" fill="#BBEF4D"/>
<path d="M1011.65 1524.63C1026.97 1569.9 1013.47 1615.38 981.48 1626.21C949.493 1637.04 911.136 1609.12 895.808 1563.85C880.48 1518.57 893.985 1473.09 925.973 1462.26C957.961 1451.43 996.317 1479.35 1011.65 1524.63Z" fill="#BBEF4D"/>
<path fill-rule="evenodd" clip-rule="evenodd" d="M2109.09 2349.85C2144.15 2338.3 2185.27 2314.38 2223.27 2284.48C1940.8 2980.54 1122.3 3175.03 527.174 2840.39C-38.4043 2522.36 -173.021 1869.53 241.293 1273.99C570.936 756.45 955.6 589.012 1111.78 565.704C1130.99 562.206 1155.11 558.586 1173.33 556.482C1371.15 518.586 1435.66 445.625 1547.52 280.181C1554.86 269.32 1562.45 258.104 1570.33 246.526C1722.55 22.9581 1802 -11.9066 1848.6 2.97977C1850.74 3.66155 1853 4.28236 1855.36 4.93061C1890.93 14.6851 1949.15 30.654 1930.42 354.029C1925.84 433.069 1932.67 498.645 1946.82 554.706C1969.92 490.286 2015.57 421.011 2092.14 376.713C2214.6 305.875 2198.06 425.074 2173.01 490.875C2109.08 730.997 2170.16 923.899 2208.68 990.335C2209.02 991.129 2209.35 991.903 2209.66 992.658C2271.99 1110.59 2311.77 1244.04 2332.12 1383.75C2267.62 1497.76 2204.53 1637.26 2175.48 1706.44L2175.02 1707.55L2174.61 1708.68C2168.95 1724.23 2155.26 1763.89 2149.9 1788.93C2144.29 1815.12 2097.28 2025.22 2012.83 2192.28C2000.83 2216.03 1992.29 2238.04 1988.48 2258.02C1984.84 2277.12 1984.19 2301.64 1997.63 2323.44C2012.49 2347.55 2036.64 2356.08 2056.21 2357.64C2074.7 2359.11 2093.24 2355.07 2109.09 2349.85ZM1865.21 2117.45C1497.1 2763.54 910.345 2805.4 520.518 2573.05C249.858 2396.58 -23.1804 1968.47 442.505 1274.94C790.699 782.54 1364.36 567.133 1704.26 782.54C2094.08 1014.89 2143.05 1629.79 1865.21 2117.45Z" fill="#BBEF4D"/>
<path fill-rule="evenodd" clip-rule="evenodd" d="M2433.63 1313.82C2404.24 1355.44 2372.41 1410.84 2342.07 1468.66C2291.43 1565.15 2244.96 1668.38 2220.95 1725.53L2219.81 1728.71C2213.71 1745.76 2202.4 1779.28 2198.12 1799.26L2197.46 1802.31C2189.37 1839.33 2141.64 2046.79 2056.85 2214.53L2055.83 2216.54C1971.39 2385.97 2172.17 2290.31 2260.87 2179.27C2261.36 2178.66 2261.85 2178.04 2262.34 2177.42C2380.55 2048.93 2605.37 1703.96 2560.85 1350.4L2560.59 1348.32C2551.71 1289.97 2514.26 1200.86 2435.48 1311.22L2433.63 1313.82Z" fill="#BBEF4D"/>
<path d="M2560.59 1348.32C2606.25 1702.61 2380.78 2048.67 2262.34 2177.42C2174.06 2289.68 1969.32 2387.67 2056.85 2214.53C2144.37 2041.38 2192.41 1825.9 2198.12 1799.26C2202.69 1777.95 2215.25 1741.23 2220.95 1725.53C2259.64 1633.41 2356.71 1421.58 2435.48 1311.22C2514.26 1200.86 2551.71 1289.97 2560.59 1348.32Z" fill="#BBEF4D"/>
</svg>
